<?xml version="1.0" standalone="no"?>
<!DOCTYPE svg PUBLIC "-//W3C//DTD SVG 20010904//EN"
 "http://www.w3.org/TR/2001/REC-SVG-20010904/DTD/svg10.dtd">
<svg version="1.0" xmlns="http://www.w3.org/2000/svg"
 width="172.000000pt" height="217.000000pt" viewBox="0 0 172.000000 217.000000"
 preserveAspectRatio="xMidYMid meet">
<metadata>
Created by potrace 1.10, written by Peter Selinger 2001-2011
</metadata>
<g transform="translate(0.000000,217.000000) scale(0.100000,-0.100000)"
fill="#000000" stroke="none">
<path d="M7 2163 c-4 -3 -7 -487 -7 -1074 0 -1046 0 -1069 19 -1079 13 -7 293
-10 838 -10 725 0 821 2 841 16 l22 15 0 1058 c0 809 -3 1060 -12 1069 -9 9
-212 12 -853 12 -463 0 -845 -3 -848 -7z m1688 -1073 l0 -1065 -840 0 -840 0
-3 1055 c-1 580 0 1061 3 1068 3 10 177 12 842 10 l838 -3 0 -1065z"/>
<path d="M386 2070 c-61 -16 -153 -69 -192 -113 -20 -22 -50 -69 -68 -106
l-31 -66 -3 -599 c-2 -516 0 -606 13 -659 29 -112 103 -200 215 -255 49 -24
66 -27 155 -27 93 0 105 2 166 32 61 30 136 98 164 147 9 16 18 7 62 -70 74
-128 111 -167 201 -211 72 -36 81 -38 171 -38 83 0 104 4 154 27 73 35 158
115 191 181 49 102 51 237 5 330 -12 23 -145 257 -297 521 -282 488 -313 532
-399 583 -25 14 -43 32 -43 42 0 36 -62 140 -110 185 -69 65 -146 97 -240 102
-41 2 -92 -1 -114 -6z m240 -71 c69 -32 121 -84 159 -158 14 -28 25 -52 25
-53 0 -2 -48 -3 -108 -3 -97 0 -112 -3 -165 -28 -75 -38 -146 -108 -183 -182
-27 -55 -29 -69 -29 -166 0 -99 2 -110 32 -167 l32 -62 -130 0 -130 0 3 298 3
297 27 57 c63 136 209 217 358 201 25 -3 73 -18 106 -34z m222 -278 c86 -44
126 -94 248 -305 64 -110 127 -218 141 -239 13 -22 23 -40 21 -41 -2 -1 -109
-62 -238 -136 -129 -74 -262 -151 -296 -171 l-60 -37 -134 232 c-74 127 -143
256 -153 286 -24 70 -19 164 13 238 29 67 120 153 192 181 73 29 203 25 266
-8z m-245 -909 l189 -327 -18 -33 c-26 -48 -98 -110 -162 -140 -47 -21 -72
-26 -138 -26 -72 0 -89 4 -147 32 -79 39 -137 101 -169 181 -21 53 -23 72 -26
349 l-3 292 143 0 143 -1 188 -327z m813 53 c143 -246 163 -293 164 -382 0
-95 -30 -165 -105 -240 -52 -51 -72 -64 -129 -82 -85 -26 -126 -26 -209 -1
-112 35 -153 81 -315 359 l-139 239 296 170 c163 94 299 167 303 164 3 -4 64
-106 134 -227z"/>
</g>
</svg>
